<!-- Generated by IcoMoon.io -->
<svg version="1.1" xmlns="http://www.w3.org/2000/svg" width="1116" height="1024" viewBox="0 0 1116 1024">
<title></title>
<g id="icomoon-ignore">
</g>
<path d="M735.535 933.554c-8.184-15.88 1.341-40.619 5.565-57.511 7.883-31.531-0.727-61.064 5.567-94.618-15.117 2.663-38.646 7.261-51.949 13.912-12.201 6.099-9.121-0.323-12.986 15.771-2.066 8.597 1.857 17.755 1.857 25.975 0 16.661 8.016 34.962 9.275 51.949 1.246 16.786-1.178 33.768-1.857 50.090-1.561 37.565-8.437 63.369 38.963 51.949 16.542-3.985 32.066-11.135 49.164-11.135 5.88 0 28.754-1.42 28.754-6.493 0-12.72-0.844-25.529 1.857-38.035-11.018 0.394-43.149 7.98-44.522-3.711-9.881 0.597-19.761 1.222-29.669 1.846"></path>
<path d="M846.855 942.811c11.265 33.453 47.872-5.32 62.15-14.845 4.18-2.785 33.423-17.701 29.685-6.493-4.628 13.884-8.608 25.768 6.493 34.324 11.968 6.781 69.626-18.681 68.646-5.567-0.844 11.262-27.142 11.371-29.685 25.975-2.611 14.992 13.898 25.907 25.972 29.685-34.598 26.743-81.018 19.362-119.664 6.496-13.708-4.568-46.607-16.816-56.585-1.857-15.947 23.909-35.801 6.417-30.961-14.568 7.663-33.219 7.283-65.293-0.578-97.674-4.921-20.272-7.994-42.229-2.782-63.078 5.147-20.592-16.023-46.064-10.206-64.932 4.585-14.87 35.85-26.045 50.093-35.25 0 29.927-2.918 60.416 5.567 89.053 5.459 18.423 5.233 27.036 1.857 46.382-4.126 23.561-1.547 47.421 0 72.313"></path>
<path d="M412.732 731.328c-40.163 2.362-86.216 6.151-115.025 38.963-15.462 17.611-12.777 39.172 4.742 56.689 17.943 17.94 40.12 17.652 63.904 10.1-16.463 42.989 78.57 1.205 90.359-10.581 14.197-14.194 38.426-19.864 55.521-30.852 26.072-16.759 34.031-24.137 63.768-14.221 81.233 27.085 162.414 15.722 236.543-28.757 61.792-37.074 142.943-82.701 176.765-150.378 33.038-66.105 52.291-136.491 37.516-210.465-8.048-40.307-26.273-76.434-51.949-108.532-28.211-35.272-30.022-57.606-12.986-100.182 29.218-73.035-2.991-147.756-76.062-175.321-74.419-28.073-148.291 23.23-165.117 100.182-8.154 37.297 6.688 71.648 18.551 105.75 12.136 34.883 10.233 51.425-3.708 86.271-11.322 28.298-53.467 40.106-70.79 65.269l-74.672 108.464c-59.094 85.858-118.214 171.716-177.335 257.602"></path>
<path d="M872.832 412.217c0.654-25.103 19.4-52.807 14.843-77.921-9.625-53.005-67.12 4.701-92.766 11.132l3.711-1.854c-19.438 9.047-49.94 11.132-71.425 11.132-31.735 0-56.547 21.015-85.34 30.614-23.966 7.989-43.225 28.198-56.585 48.236-14.682 22.022-40.215 39.281-59.368 58.439-20.592 20.597-41.268 42.383-66.789 57.511-24.145 14.311-38.632 18.076-55.657 43.6-30.923 46.357-36.596 85.201 25.046 105.747 30.277 10.092 69.582 17.288 101.111 6.496 4.981-1.705 17.397-13.010 22.264-12.986 6.431 0.033 22.367 12.573 29.685 14.843 26.917 8.347 59.417 9.571 87.199 5.565 62.229-8.979 102.918-41.716 145.633-84.411 26.941-26.93 31.697-41.401 37.432-78.877 6.976-45.766 13.979-91.504 20.983-137.27"></path>
<path d="M347.803 605.16c-21.436 5.945-44.987 2.894-66.789 8.347-24.615 6.156-43.165 21.982-61.222 38.035-20.041 17.818-53.002 43.643-16.697 61.222 18.198 8.811 45.986 12.989 65.861 12.989 47.842 0 93.404 7.573 141.925 5.565 52.302-2.166 118.073 10.369 170.682-2.782 25.282-6.322 52.15 1.040 74.21-15.771-24.46 8.127-61.653-4.278-85.34-10.204-22.538-5.635-17.454-5.622-39.889 1.857-14.704 4.902-31.922 3.993-47.31 4.639-31.794 1.336-65.329 1.458-96.99-0.651-24.894-1.661-52.136-6.333-64.485-31.029-15.662-31.352 12.324-47.557 26.086-72.177"></path>
<path d="M123.309 640.421c-29.362 1.352-114.341 11.292-122.446 48.236-10.823 49.332 83.269 37.943 109.46 37.107-17.883-8.708-48.334-19.289-40.815-46.385 4.672-16.83 38.157-34.284 53.8-38.952"></path>
<path d="M872.832 410.371c-41.382 9.549-65.635-1.162-98.879 32.090-25.909 25.912-45.402 51.178-77.373 67.166-59.216 29.609-131.208-3.795-169.241 72.251-43.8 87.579 47.978 137.419 124.716 132.753 78.665-4.783 147.769-52.807 191.019-117.704 16.659-24.997 42.655-43.586 61.295-66.892 21.819-27.283 29.55-44.753 36.173-77.921 2.622-13.119 22.579-65.549 2.782-70.5-31.379-7.872-43.133 21.58-70.494 28.746"></path>
<path d="M190.099 625.573c-30.206 5.624-122.446 14.053-122.446 60.293 0 54.232 87.424 39.889 120.592 39.889-17.302-4.623-72.253-2.087-56.585-33.399 14.112-28.203 35.253-47.041 58.439-66.776"></path>
<path d="M882.116 93.114c0.228-21.148-32.907-20.812-33.396 0-0.516 20.733 32.818 23.309 33.388 0"></path>
<path d="M865.422 80.128c-6.9 5.486 4.433 20.307 11.132 18.551 12.134-3.181-4.805-17.78-11.129-18.551"></path>
<path d="M1106.601 146.917l7.419 3.711c-5.41-55.388-115.18-30.111-146.564-66.786 0 26.716-5.147 30.519-20.41 51.946 49.864-0.003 115.364-7.85 159.556 11.129"></path>
<path d="M1108.447 148.771c-27.763 13.567-61.455 9.392-89.053 23.19-14.799 7.4-31.708 6.493-48.239 6.493-19.042 0-22.468-28.689-25.975-44.525 33.002 1.699 65.158 3.711 98.328 3.711 22.204 0.003 48.317-3.1 64.957 11.132"></path>
<path d="M1104.728 132.074c-2.725 10.16 1.439 16.759 11.132 18.551-1.031-7.283-4.805-13.526-11.129-18.551"></path>
</svg>
