<svg aria-hidden="true" style="position: absolute; width: 0; height: 0; overflow: hidden;" version="1.1" xmlns="http://www.w3.org/2000/svg" xmlns:xlink="http://www.w3.org/1999/xlink">
<defs>
<symbol id="icon-github-color" viewBox="0 0 32 32">
<path fill="#181616" style="fill: var(--color1, #181616)" d="M16 0.378c-5.873 0-10.636 4.762-10.636 10.636 0 4.699 3.047 8.686 7.274 10.092 0.531 0.099 0.727-0.231 0.727-0.512 0-0.253-0.010-1.091-0.014-1.98-2.959 0.643-3.583-1.255-3.583-1.255-0.484-1.23-1.181-1.556-1.181-1.556-0.965-0.66 0.072-0.646 0.072-0.646 1.068 0.075 1.631 1.096 1.631 1.096 0.948 1.626 2.488 1.156 3.095 0.884 0.096-0.688 0.371-1.157 0.675-1.422-2.362-0.269-4.846-1.181-4.846-5.256 0-1.161 0.415-2.11 1.096-2.855-0.111-0.268-0.475-1.35 0.103-2.815 0 0 0.893-0.285 2.925 1.091 0.849-0.236 1.759-0.354 2.662-0.358 0.904 0.004 1.815 0.122 2.664 0.358 2.030-1.376 2.922-1.091 2.922-1.091 0.579 1.465 0.215 2.547 0.105 2.815 0.682 0.745 1.095 1.694 1.095 2.855 0 4.085-2.488 4.984-4.857 5.248 0.381 0.33 0.721 0.977 0.721 1.97 0 1.423-0.012 2.568-0.012 2.919 0 0.282 0.192 0.614 0.73 0.51 4.224-1.408 7.267-5.393 7.267-10.091 0-5.873-4.761-10.635-10.636-10.635z"></path>
<path fill="#181616" style="fill: var(--color1, #181616)" d="M9.393 15.649c-0.024 0.053-0.107 0.069-0.182 0.033-0.078-0.035-0.12-0.107-0.095-0.16 0.023-0.054 0.106-0.069 0.183-0.033 0.078 0.035 0.121 0.107 0.095 0.161zM9.823 16.13c-0.051 0.047-0.15 0.025-0.217-0.049-0.069-0.074-0.082-0.174-0.031-0.221s0.148-0.025 0.217 0.049c0.070 0.075 0.084 0.173 0.031 0.221zM10.242 16.742c-0.065 0.046-0.172 0.003-0.238-0.092s-0.066-0.207 0.001-0.253c0.066-0.046 0.171-0.005 0.238 0.089 0.066 0.096 0.066 0.21-0.001 0.256zM10.817 17.334c-0.058 0.064-0.182 0.047-0.273-0.041-0.093-0.086-0.119-0.207-0.060-0.272s0.184-0.046 0.275 0.041c0.092 0.085 0.12 0.207 0.058 0.271zM11.61 17.677c-0.026 0.084-0.146 0.121-0.266 0.086-0.12-0.037-0.199-0.134-0.175-0.218 0.025-0.084 0.146-0.123 0.267-0.085 0.12 0.036 0.199 0.133 0.174 0.218zM12.48 17.741c0.003 0.087-0.099 0.16-0.226 0.162-0.127 0.003-0.23-0.068-0.232-0.154 0-0.088 0.1-0.16 0.227-0.163s0.23 0.068 0.23 0.155zM13.29 17.604c0.015 0.085-0.072 0.174-0.198 0.197-0.123 0.023-0.238-0.030-0.254-0.115-0.015-0.087 0.074-0.175 0.197-0.198 0.126-0.022 0.238 0.029 0.254 0.116z"></path>
<path fill="#100e0f" style="fill: var(--color2, #100e0f)" d="M6.214 27.076h-2.675c-0.069 0-0.125 0.056-0.125 0.125v0 1.308c0 0.069 0.056 0.125 0.125 0.125v0h1.043v1.625s-0.234 0.080-0.882 0.080c-0.764 0-1.832-0.279-1.832-2.627s1.112-2.657 2.156-2.657c0.904 0 1.293 0.159 1.54 0.236 0.077 0.023 0.15-0.054 0.15-0.123l0.298-1.264c0-0.001 0-0.002 0-0.003 0-0.039-0.019-0.073-0.048-0.094l-0-0c-0.101-0.072-0.714-0.415-2.264-0.415-1.786 0-3.618 0.759-3.618 4.412s2.098 4.197 3.865 4.197c1.464 0 2.351-0.625 2.351-0.625 0.037-0.020 0.040-0.071 0.040-0.095v-4.079c0-0.069-0.056-0.125-0.125-0.125v0zM19.877 23.703h-1.506c-0.069 0-0.125 0.056-0.125 0.125 0 0 0 0.001 0 0.001v-0l0 2.911h-2.348v-2.911c0-0 0-0 0-0.001 0-0.069-0.056-0.125-0.124-0.125h-1.506c-0.069 0-0.124 0.056-0.124 0.125 0 0 0 0.001 0 0.001v-0 7.883c0 0.069 0.056 0.126 0.124 0.126h1.506c0.069-0 0.124-0.056 0.124-0.125 0-0 0-0.001 0-0.001v0-3.372h2.348l-0.004 3.372c0 0.070 0.056 0.126 0.125 0.126h1.509c0.069-0 0.124-0.056 0.124-0.125 0-0 0-0.001 0-0.001v0-7.883c0-0 0-0.001 0-0.001 0-0.069-0.056-0.124-0.124-0.124 0 0 0 0 0 0v0zM8.085 23.882c-0.536 0-0.971 0.438-0.971 0.981s0.435 0.981 0.971 0.981c0.537 0 0.971-0.439 0.971-0.981s-0.435-0.981-0.971-0.981zM8.824 26.284h-1.502c-0.069 0-0.13 0.071-0.13 0.14v5.213c0 0.153 0.096 0.199 0.219 0.199h1.353c0.149 0 0.185-0.073 0.185-0.201v-5.225c0-0 0-0 0-0 0-0.069-0.056-0.125-0.124-0.125h-0zM25.726 26.296h-1.495c-0.069 0.001-0.124 0.056-0.124 0.125 0 0 0 0.001 0 0.001v-0 3.865s-0.38 0.277-0.919 0.277-0.682-0.244-0.682-0.772v-3.37c0-0 0-0.001 0-0.001 0-0.069-0.056-0.125-0.124-0.125h-1.517c-0.069 0.001-0.125 0.057-0.125 0.125 0 0 0 0 0 0.001v-0 3.625c0 1.567 0.874 1.951 2.076 1.951 0.986 0 1.781-0.545 1.781-0.545s0.038 0.288 0.055 0.321c0.017 0.034 0.062 0.068 0.11 0.068l0.965-0.004c0.069-0 0.125-0.056 0.125-0.125 0-0 0-0 0-0.001v0l-0.001-5.291c-0-0.069-0.056-0.125-0.125-0.125h-0zM29.811 26.119c-0.849 0-1.427 0.379-1.427 0.379v-2.669c0-0 0-0 0-0.001 0-0.069-0.056-0.125-0.124-0.125h-1.51c0 0 0 0 0 0-0.069 0-0.125 0.056-0.125 0.125 0 0 0 0.001 0 0.001v-0 7.883c0 0 0 0 0 0.001 0 0.069 0.056 0.125 0.125 0.125 0 0 0 0 0 0h1.048c0.047 0 0.083-0.024 0.109-0.067s0.064-0.363 0.064-0.363 0.617 0.585 1.787 0.585c1.372 0 2.16-0.696 2.16-3.125s-1.258-2.747-2.107-2.747zM29.221 30.559c-0.518-0.016-0.87-0.251-0.87-0.251v-2.496s0.347-0.212 0.773-0.251c0.538-0.048 1.057 0.114 1.057 1.398 0 1.354-0.234 1.622-0.959 1.599zM13.299 30.53c-0.066 0-0.234 0.027-0.408 0.027-0.555 0-0.743-0.258-0.743-0.592v-2.216h1.13c0 0 0 0 0 0 0.069 0 0.125-0.056 0.125-0.125 0-0 0-0.001 0-0.001v0-1.214c0-0 0-0 0-0 0-0.069-0.056-0.125-0.125-0.125 0 0 0 0 0 0h-1.13l-0.002-1.492c0-0.057-0.029-0.085-0.095-0.085h-1.54c-0.059 0-0.092 0.026-0.092 0.084v1.543s-0.772 0.186-0.824 0.201c-0.052 0.016-0.090 0.063-0.090 0.12v0.969c0 0 0 0 0 0.001 0 0.069 0.056 0.125 0.124 0.125h0.79v2.332c0 1.733 1.215 1.902 2.035 1.902 0.374 0 0.822-0.12 0.896-0.148 0.045-0.017 0.071-0.063 0.071-0.113l0.001-1.066c-0.001-0.069-0.056-0.124-0.125-0.125h-0z"></path>
</symbol>
<symbol id="icon-nodejs" viewBox="0 0 32 32">
<path fill="#539e43" style="fill: var(--color3, #539e43)" d="M15.819 25.756c-0.108 0-0.209-0.029-0.303-0.079l-0.961-0.571c-0.145-0.079-0.072-0.108-0.029-0.123 0.195-0.065 0.231-0.079 0.433-0.195 0.022-0.015 0.051-0.007 0.072 0.007l0.737 0.441c0.029 0.014 0.065 0.014 0.087 0l2.882-1.669c0.029-0.014 0.043-0.043 0.043-0.079v-3.33c0-0.036-0.015-0.065-0.043-0.079l-2.882-1.661c-0.029-0.015-0.065-0.015-0.087 0l-2.882 1.661c-0.029 0.014-0.043 0.051-0.043 0.079v3.33c0 0.029 0.014 0.065 0.043 0.079l0.787 0.455c0.426 0.217 0.693-0.036 0.693-0.289v-3.287c0-0.043 0.036-0.087 0.087-0.087h0.368c0.043 0 0.087 0.036 0.087 0.087v3.287c0 0.571-0.311 0.903-0.852 0.903-0.166 0-0.296 0-0.665-0.181l-0.758-0.433c-0.188-0.108-0.303-0.311-0.303-0.527v-3.33c0-0.217 0.116-0.419 0.303-0.527l2.882-1.669c0.181-0.101 0.426-0.101 0.607 0l2.882 1.669c0.188 0.108 0.303 0.311 0.303 0.527v3.33c0 0.217-0.116 0.419-0.303 0.527l-2.882 1.669c-0.094 0.043-0.202 0.065-0.303 0.065zM16.708 23.466c-1.264 0-1.524-0.578-1.524-1.069 0-0.043 0.036-0.087 0.087-0.087h0.376c0.043 0 0.079 0.029 0.079 0.072 0.058 0.383 0.224 0.571 0.99 0.571 0.607 0 0.867-0.137 0.867-0.462 0-0.188-0.072-0.325-1.019-0.419-0.787-0.079-1.279-0.253-1.279-0.881 0-0.585 0.491-0.932 1.315-0.932 0.925 0 1.38 0.318 1.438 1.011 0 0.022-0.007 0.043-0.022 0.065-0.015 0.014-0.036 0.029-0.058 0.029h-0.376c-0.036 0-0.072-0.029-0.079-0.065-0.087-0.397-0.311-0.527-0.903-0.527-0.665 0-0.744 0.231-0.744 0.404 0 0.209 0.094 0.274 0.99 0.39 0.889 0.116 1.308 0.282 1.308 0.903-0.007 0.636-0.527 0.997-1.445 0.997z"></path>
<path fill="#333" style="fill: var(--color4, #333)" d="M6.877 12.732c0-0.13-0.072-0.253-0.188-0.318l-3.063-1.762c-0.051-0.029-0.108-0.043-0.166-0.051h-0.029c-0.058 0-0.116 0.022-0.166 0.051l-3.063 1.762c-0.116 0.065-0.188 0.188-0.188 0.318l0.007 4.739c0 0.065 0.036 0.13 0.094 0.159 0.058 0.036 0.13 0.036 0.181 0l1.82-1.040c0.116-0.065 0.188-0.188 0.188-0.318v-2.218c0-0.13 0.072-0.253 0.188-0.318l0.773-0.448c0.058-0.036 0.123-0.051 0.188-0.051s0.13 0.014 0.181 0.051l0.773 0.448c0.116 0.065 0.188 0.188 0.188 0.318v2.218c0 0.13 0.072 0.253 0.188 0.318l1.82 1.040c0.027 0.017 0.059 0.027 0.094 0.027s0.067-0.010 0.095-0.028l-0.001 0c0.058-0.029 0.094-0.094 0.094-0.159l-0.007-4.739zM21.598 6.209c-0.058-0.029-0.13-0.029-0.181 0-0.058 0.036-0.094 0.094-0.094 0.159v4.695c0 0.043-0.022 0.087-0.065 0.116-0.043 0.022-0.087 0.022-0.13 0l-0.766-0.441c-0.053-0.031-0.116-0.049-0.184-0.049s-0.131 0.018-0.186 0.050l0.002-0.001-3.063 1.77c-0.116 0.065-0.188 0.188-0.188 0.318v3.532c0 0.13 0.072 0.253 0.188 0.318l3.063 1.77c0.053 0.031 0.116 0.049 0.184 0.049s0.131-0.018 0.186-0.050l-0.002 0.001 3.063-1.77c0.116-0.065 0.188-0.188 0.188-0.318v-8.805c0-0.137-0.072-0.26-0.188-0.325l-1.828-1.018zM21.317 15.195c0 0.036-0.014 0.065-0.043 0.079l-1.047 0.607c-0.014 0.007-0.030 0.011-0.047 0.011s-0.033-0.004-0.048-0.011l0.001 0-1.047-0.607c-0.029-0.014-0.043-0.051-0.043-0.079v-1.214c0-0.036 0.014-0.065 0.043-0.079l1.047-0.607c0.014-0.007 0.030-0.011 0.047-0.011s0.033 0.004 0.048 0.011l-0.001-0 1.047 0.607c0.029 0.014 0.043 0.051 0.043 0.079v1.214zM31.791 13.953c0.116-0.065 0.181-0.188 0.181-0.318v-0.86c0-0.13-0.072-0.253-0.181-0.318l-3.041-1.762c-0.053-0.031-0.116-0.049-0.184-0.049s-0.131 0.018-0.186 0.050l0.002-0.001-3.063 1.77c-0.116 0.065-0.188 0.188-0.188 0.318v3.532c0 0.13 0.072 0.253 0.188 0.318l3.041 1.734c0.116 0.065 0.253 0.065 0.361 0l1.842-1.026c0.058-0.029 0.094-0.094 0.094-0.159s-0.036-0.13-0.094-0.159l-3.077-1.77c-0.058-0.036-0.094-0.094-0.094-0.159v-1.105c0-0.065 0.036-0.13 0.094-0.159l0.961-0.549c0.027-0.017 0.059-0.027 0.094-0.027s0.067 0.010 0.095 0.027l-0.001-0 0.961 0.549c0.058 0.036 0.094 0.094 0.094 0.159v0.867c0 0.065 0.036 0.13 0.094 0.159 0.027 0.017 0.059 0.027 0.094 0.027s0.067-0.010 0.095-0.028l-0.001 0 1.82-1.062z"></path>
<path fill="#539e43" style="fill: var(--color3, #539e43)" d="M28.518 13.787c0.010-0.007 0.023-0.011 0.036-0.011s0.026 0.004 0.036 0.011l-0-0 0.585 0.339c0.022 0.014 0.036 0.036 0.036 0.065v0.679c0 0.029-0.014 0.051-0.036 0.065l-0.585 0.339c-0.010 0.007-0.023 0.011-0.036 0.011s-0.026-0.004-0.036-0.011l0 0-0.585-0.339c-0.022-0.014-0.036-0.036-0.036-0.065v-0.679c0-0.029 0.014-0.051 0.036-0.065l0.585-0.339z"></path>
<path fill="#000" style="fill: var(--color5, #000)" d="M11.998 10.709c-0.053-0.031-0.116-0.049-0.184-0.049s-0.131 0.018-0.186 0.050l0.002-0.001-3.041 1.755c-0.116 0.065-0.181 0.188-0.181 0.318v3.518c0 0.13 0.072 0.253 0.181 0.318l3.041 1.755c0.053 0.031 0.116 0.049 0.184 0.049s0.131-0.018 0.186-0.050l-0.002 0.001 3.041-1.755c0.116-0.065 0.181-0.188 0.181-0.318v-3.518c0-0.13-0.072-0.253-0.181-0.318l-3.041-1.755z"></path>
<path fill="#000" style="fill: var(--color5, #000)" d="M15.046 12.465l-3.056-1.755c-0.027-0.014-0.058-0.026-0.090-0.035l-0.004-0.001-3.424 5.865c0.028 0.034 0.062 0.063 0.099 0.086l0.002 0.001 3.056 1.755c0.087 0.051 0.188 0.065 0.282 0.036l3.215-5.88c-0.022-0.029-0.051-0.051-0.079-0.072z"></path>
<path fill="#000" style="fill: var(--color5, #000)" d="M11.529 10.066l-0.043 0.022h0.058l-0.014-0.022z"></path>
<path fill="#000" style="fill: var(--color5, #000)" d="M15.054 16.618c0.087-0.051 0.152-0.137 0.181-0.231l-3.352-5.721c-0.087-0.014-0.181-0.007-0.26 0.043l-3.034 1.748 3.272 5.967c0.051-0.009 0.098-0.024 0.14-0.045l-0.003 0.001 3.056-1.762z"></path>
<path fill="#000" style="fill: var(--color5, #000)" d="M15.335 16.56l-0.022-0.036v0.051l0.022-0.014z"></path>
<path fill="#000" style="fill: var(--color5, #000)" d="M15.054 16.618l-3.048 1.755c-0.040 0.021-0.086 0.036-0.135 0.043l-0.002 0 0.058 0.108 3.381-1.957v-0.043l-0.087-0.145c-0.014 0.101-0.079 0.188-0.166 0.238z"></path>
<path fill="#000" style="fill: var(--color5, #000)" d="M15.054 16.618l-3.048 1.755c-0.040 0.021-0.086 0.036-0.135 0.043l-0.002 0 0.058 0.108 3.381-1.957v-0.043l-0.087-0.145c-0.014 0.101-0.079 0.188-0.166 0.238z"></path>
</symbol>
<symbol id="icon-react" viewBox="0 0 32 32">
<path fill="#61dafb" style="fill: var(--color6, #61dafb)" d="M18.325 11.875c0 1.284-1.041 2.325-2.325 2.325s-2.325-1.041-2.325-2.325c0-1.284 1.041-2.325 2.325-2.325s2.325 1.041 2.325 2.325z"></path>
<path fill="#61dafb" style="fill: var(--color6, #61dafb)" d="M16 20.425c1.825 1.775 3.625 2.825 5.075 2.825 0.475 0 0.925-0.1 1.3-0.325 1.3-0.75 1.775-2.625 1.325-5.3-0.075-0.475-0.175-0.95-0.3-1.45 0.5-0.15 0.95-0.3 1.4-0.45 2.525-0.975 3.925-2.325 3.925-3.8 0-1.5-1.4-2.85-3.925-3.8-0.45-0.175-0.9-0.325-1.4-0.45 0.125-0.5 0.225-0.975 0.3-1.45 0.425-2.725-0.050-4.625-1.35-5.375-0.375-0.225-0.825-0.325-1.3-0.325-1.425 0-3.25 1.050-5.075 2.825-1.8-1.775-3.6-2.825-5.050-2.825-0.475 0-0.925 0.1-1.3 0.325-1.3 0.75-1.775 2.625-1.325 5.3 0.075 0.475 0.175 0.95 0.3 1.45-0.5 0.15-0.95 0.3-1.4 0.45-2.525 0.975-3.925 2.325-3.925 3.8 0 1.5 1.4 2.85 3.925 3.8 0.45 0.175 0.9 0.325 1.4 0.45-0.125 0.5-0.225 0.975-0.3 1.45-0.425 2.675 0.050 4.575 1.325 5.3 0.375 0.225 0.825 0.325 1.3 0.325 1.45 0.050 3.25-1 5.075-2.75zM14.6 17.050c0.45 0.025 0.925 0.025 1.4 0.025s0.95 0 1.4-0.025c-0.45 0.6-0.925 1.15-1.4 1.675-0.475-0.525-0.95-1.075-1.4-1.675zM11.5 14.475c0.25 0.425 0.475 0.825 0.75 1.225-0.775-0.1-1.5-0.225-2.2-0.375 0.225-0.675 0.475-1.375 0.775-2.075 0.2 0.4 0.425 0.825 0.675 1.225zM10.050 8.45c0.7-0.15 1.425-0.275 2.2-0.375-0.25 0.4-0.5 0.8-0.75 1.225s-0.475 0.825-0.675 1.25c-0.325-0.725-0.575-1.425-0.775-2.1zM11.425 11.875c0.325-0.675 0.675-1.35 1.075-2.025 0.375-0.65 0.8-1.3 1.225-1.95 0.75-0.050 1.5-0.075 2.275-0.075 0.8 0 1.55 0.025 2.275 0.075 0.45 0.65 0.85 1.3 1.225 1.95 0.4 0.675 0.75 1.35 1.075 2.025-0.325 0.675-0.675 1.35-1.075 2.025-0.375 0.65-0.8 1.3-1.225 1.95-0.75 0.050-1.5 0.075-2.275 0.075-0.8 0-1.55-0.025-2.275-0.075-0.45-0.65-0.85-1.3-1.225-1.95-0.4-0.675-0.75-1.35-1.075-2.025zM21.2 10.525l-0.675-1.25c-0.25-0.425-0.475-0.825-0.75-1.225 0.775 0.1 1.5 0.225 2.2 0.375-0.225 0.7-0.475 1.4-0.775 2.1zM21.2 13.225c0.3 0.7 0.55 1.4 0.775 2.075-0.7 0.15-1.425 0.275-2.2 0.375 0.25-0.4 0.5-0.8 0.75-1.225 0.225-0.375 0.45-0.8 0.675-1.225zM21.775 21.9c-0.2 0.125-0.45 0.175-0.725 0.175-1.225 0-2.75-1-4.25-2.5 0.725-0.775 1.425-1.65 2.125-2.625 1.175-0.1 2.3-0.275 3.35-0.525 0.125 0.45 0.2 0.9 0.275 1.35 0.35 2.125 0.075 3.65-0.775 4.125zM23.075 8.725c2.8 0.8 4.475 2.025 4.475 3.15 0 0.975-1.15 1.95-3.175 2.725-0.4 0.15-0.85 0.3-1.3 0.425-0.325-1.025-0.725-2.075-1.225-3.15 0.5-1.075 0.925-2.125 1.225-3.15zM21.075 1.675c0.275 0 0.5 0.050 0.725 0.175 0.825 0.475 1.125 1.975 0.775 4.125-0.075 0.425-0.175 0.875-0.275 1.35-1.050-0.225-2.175-0.4-3.35-0.525-0.675-0.975-1.4-1.85-2.125-2.625 1.5-1.475 3.025-2.5 4.25-2.5zM17.4 6.7c-0.45-0.025-0.925-0.025-1.4-0.025s-0.95 0-1.4 0.025c0.45-0.6 0.925-1.15 1.4-1.675 0.475 0.525 0.95 1.1 1.4 1.675zM10.225 1.85c0.2-0.125 0.45-0.175 0.725-0.175 1.225 0 2.75 1 4.25 2.5-0.725 0.775-1.425 1.65-2.125 2.625-1.175 0.1-2.3 0.275-3.35 0.525-0.125-0.45-0.2-0.9-0.275-1.35-0.35-2.125-0.075-3.625 0.775-4.125zM8.925 15.025c-2.8-0.8-4.475-2.025-4.475-3.15 0-0.975 1.15-1.95 3.175-2.725 0.4-0.15 0.85-0.3 1.3-0.425 0.325 1.025 0.725 2.075 1.225 3.15-0.5 1.075-0.925 2.15-1.225 3.15zM9.45 17.775c0.075-0.425 0.175-0.875 0.275-1.35 1.050 0.225 2.175 0.4 3.35 0.525 0.675 0.975 1.4 1.85 2.125 2.625-1.5 1.475-3.025 2.5-4.25 2.5-0.275 0-0.5-0.050-0.725-0.175-0.85-0.475-1.125-2-0.775-4.125zM8.4 28.075c0.55-0.675 0.575-1.425 0.275-2.175s-0.925-1.1-1.7-1.125c-0.925-0.025-1.875 0-2.8 0h-0.175v6.475h0.75v-2.45h1.175c0.15 0 0.275 0.050 0.35 0.175l1.5 2.325c0.025 0.050 0.1 0.125 0.15 0.125h0.975c-0.6-0.925-1.175-1.8-1.775-2.7 0.525-0.075 0.975-0.25 1.275-0.65zM4.75 28.025v-2.475h0.275c0.575 0 1.175-0.025 1.75 0.025 0.675 0.025 1.15 0.55 1.15 1.225s-0.55 1.2-1.225 1.225c-0.6 0.025-1.2 0-1.95 0zM14.425 28.35c-0.4-1.75-2-2.2-3.225-1.65-0.95 0.425-1.375 1.25-1.4 2.275-0.025 0.775 0.2 1.475 0.8 2 0.675 0.6 1.5 0.675 2.35 0.525 0.475-0.1 0.9-0.325 1.225-0.675-0.125-0.175-0.25-0.35-0.375-0.5-0.7 0.6-1.475 0.8-2.325 0.4-0.55-0.275-0.825-0.95-0.875-1.45h3.875v-0.325c0.025-0.225 0-0.425-0.050-0.6zM10.65 28.75c-0.075-0.75 0.675-1.55 1.5-1.55 0.95-0.025 1.55 0.55 1.575 1.55h-3.075zM18.325 26.575c-0.375-0.075-0.775-0.1-1.15-0.075-0.6 0.050-1.125 0.325-1.55 0.775 0.125 0.175 0.225 0.35 0.375 0.55 0.050-0.050 0.1-0.1 0.15-0.125 0.4-0.375 0.875-0.575 1.45-0.525 0.45 0.025 0.875 0.175 1 0.625 0.1 0.35 0.075 0.725 0.1 1.1-0.075 0-0.1-0.025-0.125-0.050-0.6-0.5-1.275-0.6-2-0.425-0.675 0.175-1.1 0.7-1.15 1.375-0.050 0.775 0.3 1.35 0.975 1.625 0.425 0.175 0.9 0.175 1.35 0.075 0.35-0.075 0.5-0.275 1-0.55v0.325h0.7c0-1 0.025-2.225 0-3.375 0-0.725-0.425-1.175-1.125-1.325zM18.675 29.725c-0.025 0.075 0 0.15 0 0.225 0 0.525-0.125 0.7-0.625 0.9-0.35 0.125-0.725 0.175-1.1 0.050-0.425-0.125-0.725-0.5-0.725-0.925-0.025-0.425 0.25-0.85 0.675-0.975 0.575-0.2 1.1-0.075 1.575 0.275 0.15 0.125 0.25 0.25 0.2 0.45zM22.575 27.25c0.65-0.2 1.25-0.075 1.7 0.475l0.075 0.050c0.175-0.15 0.325-0.3 0.525-0.475-0.075-0.075-0.1-0.125-0.15-0.2-0.725-0.775-2.15-0.875-3.025-0.25-1.225 0.9-1.2 2.65-0.6 3.575 0.575 0.875 1.4 1.175 2.375 1.050 0.575-0.075 1.050-0.35 1.425-0.825-0.175-0.15-0.35-0.3-0.525-0.475-0.050 0.050-0.075 0.075-0.1 0.125-0.675 0.75-1.8 0.675-2.4-0.125-0.35-0.475-0.425-1.025-0.325-1.575 0.050-0.625 0.375-1.125 1.025-1.35zM27.775 30.65c-0.050 0.025-0.075 0.050-0.075 0.050-0.2 0.15-0.4 0.175-0.625 0.1-0.225-0.1-0.25-0.3-0.275-0.5v-2.85c0-0.050 0 0.050 0.025-0.2h0.95v-0.75h-1v-1.25h-0.75v1.35h-0.65c-0.050 0-0.125 0.050-0.125 0.1-0.025 0.175 0 0.3 0 0.55h0.8v3.2c0 0.4 0.1 0.75 0.45 0.95 0.375 0.225 1.1 0.175 1.425-0.1 0.050-0.025 0.075-0.125 0.075-0.15-0.075-0.15-0.15-0.325-0.225-0.5z"></path>
</symbol>
<symbol id="icon-javascript" viewBox="0 0 32 32">
<path fill="#e6a329" style="fill: var(--color7, #e6a329)" d="M27.264 6.248h-22.651l2.123 23.027 9.201 2.61 9.201-2.61z"></path>
<path fill="#f1bf22" style="fill: var(--color8, #f1bf22)" d="M15.938 8.124v21.809l7.455-2.112 1.814-19.697z"></path>
<path fill="#fff" style="fill: var(--color9, #fff)" d="M21.869 10.949h-11.462l-0.798 8.621 0.016-0.054h9.738l-0.317 3.648-3.107 0.894-3.153-0.908-0.189-2.208h-2.862l0.408 4.411 5.795 1.645 5.798-1.645 0.798-8.659h-10.334l0.133-2.885h7.17l0.107 1.653h2.886z"></path>
<path fill="#ebebeb" style="fill: var(--color10, #ebebeb)" d="M15.941 10.949h-5.534l-0.798 8.621 0.016-0.054h6.316v-2.812h-3.337l0.133-2.885h3.205zM12.603 20.943h-2.868l0.408 4.409 5.795 1.643v-2.934l-3.153-0.91z"></path>
<path fill="#231f20" style="fill: var(--color11, #231f20)" d="M13.735 2.852h-2.017v1.448h3.46v-4.299h-1.442zM20.158 0.023h-3.515v1.505c0.469 0.469 0.714 0.695 1.406 1.375h-1.406v1.372h3.515v-1.37l-1.404-1.375h1.406z"></path>
</symbol>
<symbol id="icon-css" viewBox="0 0 23 32">
<path fill="#264de4" style="fill: var(--color12, #264de4)" d="M11.333 31.919l-9.235-2.564-2.058-23.083h22.614l-2.060 23.079-9.261 2.567z"></path>
<path fill="#2965f1" style="fill: var(--color13, #2965f1)" d="M18.83 27.882l1.76-19.722h-9.243v21.797l7.483-2.075z"></path>
<path fill="#ebebeb" style="fill: var(--color10, #ebebeb)" d="M4.758 16.721l0.254 2.831h6.335v-2.831h-6.589zM4.248 10.991l0.257 2.831h6.841v-2.831h-7.099zM11.347 24.074l-0.012 0.003-3.153-0.851-0.202-2.258h-2.842l0.397 4.445 5.799 1.61 0.013-0.004v-2.945z"></path>
<path fill="#000" style="fill: var(--color5, #000)" d="M5.362 0h3.429v1.434h-1.995v1.434h1.995v1.434h-3.429v-4.302zM9.477 0h3.429v1.247h-1.995v0.249h1.995v2.868h-3.429v-1.309h1.995v-0.249h-1.995v-2.805zM13.592 0h3.429v1.247h-1.995v0.249h1.995v2.868h-3.429v-1.309h1.995v-0.249h-1.995v-2.805z"></path>
<path fill="#fff" style="fill: var(--color9, #fff)" d="M17.918 16.721l0.511-5.73h-7.092v2.831h3.989l-0.258 2.899h-3.732v2.831h3.486l-0.329 3.672-3.157 0.852v2.945l5.804-1.608 0.043-0.478 0.665-7.453 0.069-0.76z"></path>
</symbol>
<symbol id="icon-html" viewBox="0 0 23 32">
<path fill="#e44d26" style="fill: var(--color14, #e44d26)" d="M22.654 6.273l-2.060 23.079-9.261 2.567-9.235-2.564-2.058-23.083h22.614z"></path>
<path fill="#f16529" style="fill: var(--color15, #f16529)" d="M11.347 29.957l7.483-2.075 1.76-19.722h-9.243v21.797z"></path>
<path fill="#ebebeb" style="fill: var(--color10, #ebebeb)" d="M7.342 13.822h4.005v-2.831h-7.099l0.068 0.759 0.696 7.801h6.335v-2.831h-3.746l-0.259-2.899zM7.98 20.968h-2.842l0.397 4.445 5.799 1.61 0.013-0.004v-2.945l-0.012 0.003-3.153-0.851-0.202-2.258z"></path>
<path fill="#000" style="fill: var(--color5, #000)" d="M2.144 0h1.439v1.421h1.316v-1.421h1.439v4.304h-1.439v-1.441h-1.316v1.441h-1.439v-4.304zM8.23 1.427h-1.266v-1.427h3.972v1.427h-1.267v2.877h-1.439v-2.877h-0zM11.566 0h1.5l0.923 1.512 0.922-1.512h1.501v4.304h-1.433v-2.133l-0.99 1.53h-0.025l-0.99-1.53v2.133h-1.408v-4.304zM17.128 0h1.439v2.882h2.023v1.423h-3.462v-4.304z"></path>
<path fill="#fff" style="fill: var(--color9, #fff)" d="M11.337 19.552h3.486l-0.329 3.672-3.157 0.852v2.945l5.804-1.608 0.043-0.478 0.665-7.453 0.069-0.76h-6.581v2.831zM11.337 13.815v0.007h6.838l0.057-0.636 0.129-1.435 0.068-0.759h-7.092v2.824z"></path>
</symbol>
</defs>
</svg>
